<svg width="40" height="40" viewBox="0 0 40 40" fill="none" xmlns="http://www.w3.org/2000/svg">
<path d="M27.6372 2.57609e-05H5.68929C4.18008 0.000935314 2.73302 0.601361 1.66616 1.66931C0.599311 2.73727 4.12914e-06 4.18533 4.40298e-06 5.69519V27.6525C-0.000926621 28.4005 0.145802 29.1414 0.431813 29.8326C0.717825 30.5238 1.13748 31.1517 1.66667 31.6803L8.33331 38.3326C9.40183 39.3996 10.8497 39.9992 12.3594 40H34.3073C35.8171 40 37.265 39.4 38.3326 38.3319C39.4002 37.2639 40 35.8153 40 34.3048V12.3476C39.9998 10.8381 39.4003 9.39048 38.3333 8.3232L31.6701 1.65711C31.1396 1.1295 30.5104 0.711606 29.8184 0.427282C29.1264 0.142958 28.3852 -0.00222441 27.6372 2.57609e-05ZM24.3004 30.0026H15.6927C14.1829 30.0026 12.7349 29.4026 11.6673 28.3345C10.5998 27.2665 10 25.8179 10 24.3074V15.6892C10 14.1787 10.5998 12.7301 11.6673 11.6621C12.7349 10.594 14.1829 9.99402 15.6927 9.99402H24.3004C25.8102 9.99402 27.2582 10.594 28.3258 11.6621C29.3933 12.7301 29.9931 14.1787 29.9931 15.6892V24.3006C29.994 25.049 29.8475 25.7903 29.5618 26.4821C29.2761 27.1739 28.8569 27.8025 28.3282 28.3321C27.7995 28.8617 27.1716 29.2818 26.4805 29.5684C25.7894 29.855 25.0486 30.0026 24.3004 30.0026Z" fill="#080A0C"/>
</svg>
