<svg width="79" height="20" viewBox="0 0 79 20" fill="none" xmlns="http://www.w3.org/2000/svg">
<path d="M13.8245 1.28805e-05H2.84586C2.09094 0.000467657 1.36709 0.300681 0.833438 0.834657C0.299784 1.36863 2.06545e-06 2.09267 2.20243e-06 2.8476V13.8262C-0.000463509 14.2003 0.0729323 14.5707 0.215999 14.9163C0.359066 15.2619 0.568985 15.5759 0.83369 15.8401L4.16844 19.1663C4.70293 19.6998 5.42717 19.9996 6.18235 20H17.161C17.9162 20 18.6405 19.7 19.1745 19.166C19.7085 18.6319 20.0086 17.9076 20.0086 17.1524V6.17378C20.0085 5.41904 19.7086 4.69524 19.1749 4.1616L15.8418 0.828557C15.5764 0.564752 15.2617 0.355803 14.9156 0.213641C14.5694 0.0714789 14.1987 -0.00111221 13.8245 1.28805e-05ZM12.1554 15.0013H7.84973C7.0945 15.0013 6.3702 14.7013 5.83617 14.1673C5.30214 13.6332 5.00215 12.9089 5.00215 12.1537V7.84459C5.00215 7.08937 5.30214 6.36507 5.83617 5.83105C6.3702 5.29702 7.0945 4.99701 7.84973 4.99701H12.1554C12.9106 4.99701 13.6349 5.29702 14.1689 5.83105C14.703 6.36507 15.003 7.08937 15.003 7.84459V12.1503C15.0034 12.5245 14.9301 12.8952 14.7872 13.2411C14.6443 13.5869 14.4346 13.9013 14.1702 14.166C13.9057 14.4308 13.5916 14.6409 13.2459 14.7842C12.9002 14.9275 12.5296 15.0013 12.1554 15.0013Z" fill="#757C8A"/>
<path d="M33.8536 11.5485V5.37297C33.8536 4.96351 33.6909 4.57082 33.4014 4.28129C33.1118 3.99176 32.7191 3.8291 32.3097 3.8291H26.1342C25.7247 3.8291 25.3321 3.99176 25.0425 4.28129C24.753 4.57082 24.5903 4.96351 24.5903 5.37297V14.6259C24.5903 15.0354 24.753 15.4281 25.0425 15.7176C25.3321 16.0071 25.7247 16.1698 26.1342 16.1698H33.8536V13.082H27.6781V11.5382L33.8536 11.5485ZM27.6781 6.91684H30.7658V7.19988L29.5067 8.459H27.6832L27.6781 6.91684Z" fill="#757C8A"/>
<path d="M56.2157 3.83179V6.91953H51.5841C51.1747 6.91953 50.782 7.08219 50.4925 7.37172C50.2029 7.66126 50.0403 8.05395 50.0403 8.46341V16.1828H46.9525V5.37395C46.9525 4.96449 47.1152 4.5718 47.4047 4.28227C47.6942 3.99274 48.0869 3.83008 48.4964 3.83008L56.2157 3.83179Z" fill="#757C8A"/>
<path d="M65.4705 3.83203H57.7512V6.91977H63.9266V8.46364H59.295C58.8856 8.46364 58.4929 8.6263 58.2033 8.91583C57.9138 9.20536 57.7512 9.59805 57.7512 10.0075V14.6391C57.7506 15.035 57.9021 15.4159 58.1745 15.7033C58.4468 15.9906 58.8191 16.1623 59.2144 16.183H67.0041V5.37419C67.0036 4.9668 66.8422 4.5761 66.5549 4.28723C66.2677 3.99837 65.8779 3.83475 65.4705 3.83203ZM63.9266 11.8035L62.6469 13.0867H60.8423V11.5428H63.9301L63.9266 11.8035Z" fill="#757C8A"/>
<path d="M45.0503 14.0206V5.30457C45.0305 4.90863 44.8591 4.5355 44.5717 4.26246C44.2843 3.98941 43.9029 3.8374 43.5064 3.83789H37.3207C36.9242 3.8374 36.5428 3.98941 36.2554 4.26246C35.968 4.5355 35.7966 4.90863 35.7768 5.30457V14.7393C35.7955 15.1223 35.956 15.4846 36.2272 15.7557C36.4983 16.0268 36.8605 16.1873 37.2435 16.206H42.8615L44.371 17.7156L46.5582 15.5267L45.0503 14.0206ZM38.8645 6.93078H41.9523V11.8351L40.6709 13.1166H38.8645V6.93078Z" fill="#757C8A"/>
<path d="M78.0272 5.20143V16.1543H74.9909V6.934H71.958V16.1543H68.9183V5.20143C68.9576 4.82605 69.1341 4.4784 69.414 4.22514C69.6938 3.97188 70.0573 3.83085 70.4348 3.8291H76.5039C76.8817 3.8318 77.2455 3.97298 77.5262 4.2259C77.807 4.47881 77.9852 4.82591 78.0272 5.20143Z" fill="#757C8A"/>
</svg>
