<svg width="33" height="32" viewBox="0 0 33 32" fill="none" xmlns="http://www.w3.org/2000/svg">
    <path fill-rule="evenodd" clip-rule="evenodd"
        d="M10.0218 4H22.0338C25.3432 4 28.0272 6.68267 28.0272 9.99467V22.0067C28.0272 25.316 25.3445 28 22.0325 28H10.0218C6.71116 28 4.02716 25.3173 4.02716 22.0053V9.99467C4.02716 6.684 6.70983 4 10.0218 4V4Z"
        stroke="#E1E4EA" stroke-width="1.5" stroke-linecap="round" stroke-linejoin="round" />
    <path
        d="M22.6258 8.95104C22.3778 8.95237 22.1765 9.15371 22.1765 9.40171C22.1765 9.64971 22.3792 9.85104 22.6272 9.85104C22.8752 9.85104 23.0765 9.64971 23.0765 9.40171C23.0778 9.15237 22.8752 8.95104 22.6258 8.95104"
        stroke="#E1E4EA" stroke-width="1.5" stroke-linecap="round" stroke-linejoin="round" />
    <path
        d="M19.4213 12.6061C21.2958 14.4806 21.2958 17.5198 19.4213 19.3943C17.5468 21.2688 14.5076 21.2688 12.6331 19.3943C10.7585 17.5198 10.7585 14.4806 12.6331 12.6061C14.5076 10.7316 17.5468 10.7316 19.4213 12.6061"
        stroke="#E1E4EA" stroke-width="1.5" stroke-linecap="round" stroke-linejoin="round" />
</svg>