<svg width="33" height="32" viewBox="0 0 33 32" fill="none" xmlns="http://www.w3.org/2000/svg">
<path fill-rule="evenodd" clip-rule="evenodd" d="M10.0272 4H22.0325C25.3432 4 28.0272 6.684 28.0272 9.99467V22.0067C28.0272 25.316 25.3432 28 22.0325 28H10.0218C6.71116 28 4.02716 25.316 4.02716 22.0053V10C4.02716 6.68667 6.71383 4 10.0272 4V4Z" stroke="#E1E4EA" stroke-width="1.5" stroke-linecap="round" stroke-linejoin="round"/>
<path d="M10.8538 14.7998V21.9998" stroke="#E1E4EA" stroke-width="1.5" stroke-linecap="round" stroke-linejoin="round"/>
<path d="M15.6525 21.9998V17.7998C15.6525 16.1425 16.9952 14.7998 18.6525 14.7998V14.7998C20.3098 14.7998 21.6525 16.1425 21.6525 17.7998V21.9998" stroke="#E1E4EA" stroke-width="1.5" stroke-linecap="round" stroke-linejoin="round"/>
<path d="M10.8512 10.4507C10.6858 10.4507 10.5512 10.5853 10.5525 10.7507C10.5525 10.916 10.6872 11.0507 10.8525 11.0507C11.0178 11.0507 11.1525 10.916 11.1525 10.7507C11.1525 10.584 11.0178 10.4507 10.8512 10.4507" stroke="#E1E4EA" stroke-width="1.5" stroke-linecap="round" stroke-linejoin="round"/>
</svg>
