<svg width="32" height="32" viewBox="0 0 32 32" fill="none" xmlns="http://www.w3.org/2000/svg">
<path fill-rule="evenodd" clip-rule="evenodd" d="M26.6667 21.333H22.0467C21.6013 21.333 21.184 21.5557 20.9373 21.9263L20.396 22.7383C20.1493 23.109 19.732 23.3317 19.2867 23.3317H12.7133C12.268 23.3317 11.8507 23.109 11.604 22.7383L11.0627 21.9263C10.8147 21.5557 10.3987 21.333 9.952 21.333H5.33333C4.59733 21.333 4 21.9303 4 22.6663V23.9997C4 25.473 5.19333 26.6663 6.66667 26.6663H25.3333C26.8067 26.6663 28 25.473 28 23.9997V22.6663C28 21.9303 27.4027 21.333 26.6667 21.333V21.333Z" stroke="#8F96A3" stroke-width="2" stroke-linecap="round" stroke-linejoin="round"/>
<path d="M11.9997 17.3332V14.2266" stroke="#8F96A3" stroke-width="2" stroke-linecap="round" stroke-linejoin="round"/>
<path d="M15.9997 17.3327V12.666" stroke="#8F96A3" stroke-width="2" stroke-linecap="round" stroke-linejoin="round"/>
<path d="M19.9997 17.3329V9.55957" stroke="#8F96A3" stroke-width="2" stroke-linecap="round" stroke-linejoin="round"/>
<path d="M26.6663 21.333V7.42767C26.6663 6.27034 25.605 5.33301 24.2957 5.33301H7.70367C6.39434 5.33301 5.33301 6.27034 5.33301 7.42767V21.333" stroke="#8F96A3" stroke-width="2" stroke-linecap="round" stroke-linejoin="round"/>
</svg>
