<svg width="33" height="32" viewBox="0 0 33 32" fill="none" xmlns="http://www.w3.org/2000/svg">
<path d="M17.8544 14.7471L8.42773 24.1737" stroke="#8F96A3" stroke-width="2" stroke-linecap="round" stroke-linejoin="round"/>
<path d="M9.44452 17.3318L4.82719 16.2411C4.31919 16.1211 4.14052 15.4905 4.50852 15.1211L8.18052 11.4491C8.42719 11.2025 8.76186 11.0611 9.11252 11.0585L13.2525 11.0225" stroke="#8F96A3" stroke-width="2" stroke-linecap="round" stroke-linejoin="round"/>
<path fill-rule="evenodd" clip-rule="evenodd" d="M27.1057 11.9665L28.183 6.7825C28.4764 5.37183 27.2284 4.12383 25.8177 4.41716L20.6337 5.4945C19.107 5.81183 17.707 6.56783 16.6057 7.6705L12.3524 11.9225C10.7297 13.5452 9.67369 15.6492 9.34036 17.9198L9.32569 18.0172C9.11502 19.4665 9.60036 20.9292 10.635 21.9652V21.9652C11.6697 22.9998 13.1337 23.4852 14.583 23.2732L14.6804 23.2585C16.951 22.9265 19.055 21.8692 20.6777 20.2465L24.9297 15.9945C26.0324 14.8932 26.7884 13.4932 27.1057 11.9665V11.9665Z" stroke="#8F96A3" stroke-width="2" stroke-linecap="round" stroke-linejoin="round"/>
<path d="M18.4668 6.28516C21.5481 8.38649 24.2135 11.0518 26.3148 14.1332" stroke="#8F96A3" stroke-width="2" stroke-linecap="round" stroke-linejoin="round"/>
<path d="M15.2676 23.1557L16.3582 27.773C16.4782 28.281 17.1089 28.4597 17.4782 28.0917L21.1502 24.4197C21.3969 24.173 21.5382 23.8383 21.5409 23.4877L21.5769 19.3477" stroke="#8F96A3" stroke-width="2" stroke-linecap="round" stroke-linejoin="round"/>
</svg>
