<svg width="33" height="32" viewBox="0 0 33 32" fill="none" xmlns="http://www.w3.org/2000/svg">
<path fill-rule="evenodd" clip-rule="evenodd" d="M21.7337 28H11.0671C9.59372 28 8.40039 26.8067 8.40039 25.3333V6.66667C8.40039 5.19333 9.59372 4 11.0671 4H21.7337C23.2071 4 24.4004 5.19333 24.4004 6.66667V25.3333C24.4004 26.8067 23.2071 28 21.7337 28Z" stroke="#8F96A3" stroke-width="2" stroke-linecap="round" stroke-linejoin="round"/>
<path d="M16.3987 23.0003C16.2147 23.0003 16.0654 23.1497 16.0667 23.3337C16.0667 23.5177 16.2161 23.667 16.4001 23.667C16.5841 23.667 16.7334 23.5177 16.7334 23.3337C16.7334 23.1497 16.5841 23.0003 16.3987 23.0003" stroke="#8F96A3" stroke-width="2" stroke-linecap="round" stroke-linejoin="round"/>
<path d="M14.7334 7.99967H18.0667" stroke="#8F96A3" stroke-width="2" stroke-linecap="round" stroke-linejoin="round"/>
</svg>
