<svg width="33" height="34" viewBox="0 0 33 34" fill="none" xmlns="http://www.w3.org/2000/svg">
<path d="M20.8012 12.498V12.9983C20.8012 15.2083 19.0096 16.9999 16.7995 16.9999V16.9999C14.5895 16.9999 12.7979 15.2083 12.7979 12.9983V12.498" stroke="#8F96A3" stroke-width="2" stroke-linecap="round" stroke-linejoin="round"/>
<path d="M20.8016 12.4982V12.9985C20.8016 15.2085 22.5932 17.0001 24.8033 17.0001H25.1344C27.1615 17.0001 28.8049 15.3567 28.8049 13.3295V13.3295C28.8049 12.7856 28.6571 12.2519 28.3772 11.7854L25.1773 6.45223C24.6349 5.54824 23.658 4.99512 22.6038 4.99512H10.9961C9.94185 4.99512 8.96492 5.54824 8.42253 6.45223L5.22262 11.7854C4.94276 12.2519 4.79492 12.7856 4.79492 13.3295V13.3295C4.79492 15.3567 6.43829 17.0001 8.46549 17.0001H8.79659C11.0066 17.0001 12.7983 15.2085 12.7983 12.9985V12.4982" stroke="#8F96A3" stroke-width="2" stroke-linecap="round" stroke-linejoin="round"/>
<path d="M27.3037 16.2854V26.0034C27.3037 27.6609 25.96 29.0046 24.3024 29.0046H9.29617C7.63863 29.0046 6.29492 27.6609 6.29492 26.0034V16.2852" stroke="#8F96A3" stroke-width="2" stroke-linecap="round" stroke-linejoin="round"/>
<path d="M19.0507 23.4609H14.5488" stroke="#8F96A3" stroke-width="2" stroke-linecap="round" stroke-linejoin="round"/>
</svg>
