<svg width="60" height="60" viewBox="0 0 60 60" fill="none" xmlns="http://www.w3.org/2000/svg">
<path fill-rule="evenodd" clip-rule="evenodd" d="M49.5088 7.49023C51.1656 7.49023 52.5088 8.83338 52.5088 10.4902L52.5088 49.509C52.5088 51.1658 51.1656 52.509 49.5088 52.509H10.49C8.83318 52.509 7.49004 51.1658 7.49004 49.509V10.4902C7.49004 8.83338 8.83319 7.49023 10.49 7.49023L49.5088 7.49023Z" fill="#E1E4EA" stroke="#565D6C" stroke-width="3" stroke-linecap="round" stroke-linejoin="round"/>
<path fill-rule="evenodd" clip-rule="evenodd" d="M52.509 19.9956H7.49023H52.509Z" fill="#E1E4EA"/>
<path d="M52.509 19.9956H7.49023" stroke="#565D6C" stroke-width="3" stroke-linecap="round" stroke-linejoin="round"/>
<path fill-rule="evenodd" clip-rule="evenodd" d="M40.0035 7.49023V52.509V7.49023Z" fill="#E1E4EA"/>
<path d="M40.0035 7.49023V52.509" stroke="#565D6C" stroke-width="3" stroke-linecap="round" stroke-linejoin="round"/>
<path fill-rule="evenodd" clip-rule="evenodd" d="M31.2503 41.2542H21.2462C19.8649 41.2542 18.7451 40.1345 18.7451 38.7532V28.749" fill="#E1E4EA"/>
<path d="M31.2503 41.2542H21.2462C19.8649 41.2542 18.7451 40.1345 18.7451 38.7532V28.749" stroke="#565D6C" stroke-width="3" stroke-linecap="round" stroke-linejoin="round"/>
<path fill-rule="evenodd" clip-rule="evenodd" d="M27.499 37.5029L31.2506 41.2545L27.499 45.0061" fill="#E1E4EA"/>
<path d="M27.499 37.5029L31.2506 41.2545L27.499 45.0061" stroke="#565D6C" stroke-width="3" stroke-linecap="round" stroke-linejoin="round"/>
<path fill-rule="evenodd" clip-rule="evenodd" d="M14.9932 32.5006L18.7447 28.749L22.4963 32.5006" fill="#E1E4EA"/>
<path d="M14.9932 32.5006L18.7447 28.749L22.4963 32.5006" stroke="#565D6C" stroke-width="3" stroke-linecap="round" stroke-linejoin="round"/>
</svg>
