<svg width="60" height="60" viewBox="0 0 60 60" fill="none" xmlns="http://www.w3.org/2000/svg">
<path fill-rule="evenodd" clip-rule="evenodd" d="M48.75 52.5H11.25C8.4875 52.5 6.25 50.2625 6.25 47.5V12.5C6.25 9.7375 8.4875 7.5 11.25 7.5H48.75C51.5125 7.5 53.75 9.7375 53.75 12.5V47.5C53.75 50.2625 51.5125 52.5 48.75 52.5Z" fill="#E1E4EA" stroke="#565D6C" stroke-width="3" stroke-linecap="round" stroke-linejoin="round"/>
<path d="M36.25 32.5L28.75 40L23.75 35" stroke="#565D6C" stroke-width="3" stroke-linecap="round" stroke-linejoin="round"/>
<path d="M6.25 20H53.75" stroke="#565D6C" stroke-width="3" stroke-linecap="round" stroke-linejoin="round"/>
<path d="M13.7627 13.7248C13.7552 13.7248 13.7502 13.7298 13.7502 13.7373C13.7502 13.7448 13.7552 13.7498 13.7627 13.7498C13.7702 13.7498 13.7752 13.7448 13.7752 13.7373C13.7752 13.7298 13.7702 13.7248 13.7627 13.7248" stroke="#565D6C" stroke-width="3" stroke-linecap="round" stroke-linejoin="round"/>
<path d="M20.1201 13.7248C20.1126 13.7248 20.1076 13.7298 20.1076 13.7373C20.1076 13.7448 20.1126 13.7498 20.1201 13.7498C20.1276 13.7498 20.1326 13.7448 20.1326 13.7373C20.1326 13.7298 20.1276 13.7248 20.1201 13.7248" stroke="#565D6C" stroke-width="3" stroke-linecap="round" stroke-linejoin="round"/>
<path d="M26.4697 13.7248C26.4622 13.7248 26.4572 13.7298 26.4572 13.7373C26.4572 13.7448 26.4622 13.7498 26.4697 13.7498C26.4772 13.7498 26.4822 13.7448 26.4822 13.7373C26.4822 13.7298 26.4747 13.7248 26.4697 13.7248" stroke="#565D6C" stroke-width="3" stroke-linecap="round" stroke-linejoin="round"/>
</svg>
